<?xml version="1.0" encoding="UTF-8" standalone="no"?>
<!-- Created with Inkscape (http://www.inkscape.org/) -->

<svg
   width="203.81145mm"
   height="92.335121mm"
   viewBox="0 0 203.81144 92.335118"
   version="1.1"
   id="svg1"
   inkscape:version="1.4.2 (f4327f4, 2025-05-13)"
   sodipodi:docname="blob_3.svg"
   xmlns:inkscape="http://www.inkscape.org/namespaces/inkscape"
   xmlns:sodipodi="http://sodipodi.sourceforge.net/DTD/sodipodi-0.dtd"
   xmlns="http://www.w3.org/2000/svg"
   xmlns:svg="http://www.w3.org/2000/svg">
  <sodipodi:namedview
     id="namedview1"
     pagecolor="#505050"
     bordercolor="#eeeeee"
     borderopacity="1"
     inkscape:showpageshadow="0"
     inkscape:pageopacity="0"
     inkscape:pagecheckerboard="0"
     inkscape:deskcolor="#505050"
     inkscape:document-units="mm"
     inkscape:zoom="0.65477694"
     inkscape:cx="233.66736"
     inkscape:cy="-408.53608"
     inkscape:window-width="1920"
     inkscape:window-height="974"
     inkscape:window-x="-11"
     inkscape:window-y="-11"
     inkscape:window-maximized="1"
     inkscape:current-layer="layer1" />
  <defs
     id="defs1" />
  <g
     inkscape:label="Layer 1"
     inkscape:groupmode="layer"
     id="layer1"
     transform="translate(-8.1405581,-234.12188)"
     style="display:none">
    <path
       style="fill:#ffffff;stroke-width:1.0953"
       d="m 36.456578,74.003775 c 1.45825,-8.52968 -15.61965,-23.707429 -7.03896,-29.715801 11.50679,-8.057293 4.99746,19.621185 9.79333,15.143628 4.17181,-3.894913 -1.52426,-11.881332 4.59062,-15.143628 0.69177,-0.369065 1.47994,-2.093984 1.83626,-1.428644 0.28696,0.535847 0.71096,5.645332 1.83624,4.85739 1.32295,-0.926357 10.00311,-16.692099 11.93563,-14.286444 8.45266,10.52219 -16.37593,18.286647 12.85374,18.286647 13.87919,0 17.29484,-15.406459 25.40144,-12.00061 13.884592,5.833364 -5.45165,13.082605 -9.79332,17.715187 -1.39254,1.485839 -0.351404,5.434753 -2.828571,10.222859 -2.749327,2.701824 -16.754989,11.07366 -0.843939,12.063992 7.35236,0.457624 15.967662,-3.952299 25.628272,-3.428745 5.25569,0.28483 20.55584,5.906698 27.01088,7.714678 8.96303,2.510441 25.56777,-9.646454 32.13436,0.571458 2.78315,4.330713 -33.685,5.50515 -33.97061,6.571765 -0.80924,3.022108 15.66303,4.469091 16.52624,4.571662 13.34619,1.585864 43.55253,3.628935 46.51832,18.858101 0.0548,0.28125 0.65315,3.10468 0.30604,3.42875 -3.32525,3.10454 -9.39225,1.2295 -14.07791,0.85719 -7.47885,-0.59426 -14.47221,-4.9801 -21.42291,-7.14323 -6.40028,-1.99182 -13.85175,-0.0808 -20.50478,-0.85718 -7.94049,-0.92669 12.45998,5.50237 3.67249,7.14322 -5.11211,0.95456 -13.18101,1.23758 -18.05645,0.57146 -9.67983,-1.32254 -23.76586,-14.21736 -33.052482,-7.71468 -2.72679,1.90935 7.418412,8.40856 4.89666,12.28634 -3.33709,5.13157 -7.13502,4.61651 -11.93561,6.85749 -2.90523,1.3562 5.58282,6.08527 -2.75438,6.57176 -8.31263,0.48506 -8.53153,-0.0529 -17.44437,-4.0002 -4.49463,-1.99056 -9.12918,-3.84953 -13.15979,-6.57176 -7.26127,-4.9042 3.51072,-11.791 -10.71145,-12.57207 -8.70165,-0.47789 -18.07475,21.41257 -30.29811,10.00051 -12.2199202,-11.40886 9.11914,-18.42743 11.01749,-22.85831 3.23675,-7.5548 -8.91547,-13.311358 -12.85374,-17.429463 -8.2651502,-8.642564 5.5848,-3.712765 6.12083,-5.714576 0.89584,-3.345511 -6.04671,-7.489198 -4.89666,-12.857798 1.43117,-6.680901 19.77825,8.103201 23.5652,9.429052 z"
       id="path2"
       sodipodi:nodetypes="cssssscssscsssssssssscssssssssssssssc" />
    <path
       style="fill:#ffffff;stroke-width:1.05833"
       d="m 118.35561,65.717639 c 1.45286,-4.06459 3.86999,-7.308689 8.00041,-8.857597 1.07898,-0.404616 4.85739,0.258501 4.85739,1.428645 0,4.377563 -10.46502,5.378 -12.8578,7.428952 z"
       id="path3"
       sodipodi:nodetypes="cssc" />
    <path
       style="fill:#ffffff;stroke-width:1.05833"
       d="m 138.64236,74.003775 c 4.96975,-10.006531 -11.75449,0 0,0 z"
       id="path4"
       sodipodi:nodetypes="cc" />
    <path
       style="fill:#ffffff;stroke-width:1.05833"
       d="m 133.49924,126.86361 c 26.65353,-0.44913 8.81687,12.34362 0,0 z"
       id="path5"
       sodipodi:nodetypes="cc" />
  </g>
  <g
     inkscape:groupmode="layer"
     id="layer2"
     inkscape:label="Layer 2"
     style="display:none"
     transform="translate(-4.0997418,-247.2773)">
    <path
       style="fill:#ffffff;stroke-width:1.05833"
       d="m 80.861267,201.15312 c -14.256388,-5.59743 3.524599,-23.97211 -5.714577,-32.28736 -6.059072,-5.45317 -7.669376,6.62693 -8.000407,6.57176 -6.457577,-1.07626 -17.027901,-5.16298 -22.57258,-7.14322 -21.808457,-7.78874 -16.439277,-17.9666 -33.716006,-9.42905 -2.5112844,1.24099 -7.451052,-0.17523 -8.0004084,2.57155 -0.5693168,2.84659 14.6764724,3.05428 16.3707434,5.41152 4.664644,6.48994 -16.8214795,10.63862 -6.480175,14.55187 3.220358,1.21862 14.99273,0.17266 16.110757,4.32357 2.109154,7.83068 -26.8831977,11.62811 -23.7154945,15.42936 3.3697531,4.0437 13.1020225,-0.0415 16.5722735,3.42874 5.115045,5.11505 -2.028103,17.19683 20.858208,18.28665 5.349703,0.25475 8.685441,-11.79534 12.072043,-7.21465 3.734364,5.05107 -9.130723,15.46715 -8.071839,18.6438 1.495848,4.48755 7.293213,6.15817 11.429153,6.57177 16.253602,1.62536 11.816291,-1.93568 13.714986,-11.42916 2.346746,-11.73373 20.379166,8.93306 17.715188,-9.71478 -0.130017,-0.91012 17.671378,1.78025 20.572478,0.57146 5.33242,-2.22184 2.85432,-10.89471 12.28634,-11.71488 21.87546,-1.90222 8.91938,5.68175 20.85821,13.14353 10.34369,6.4648 39.18827,-1.45386 36.57329,-17.14374 -0.76196,-4.57175 -5.05349,-6.05633 -8.85759,-7.14322 -0.0113,-0.003 11.16956,-0.3982 8.28613,-2.0001 -3.48558,-1.93643 -8.3599,-1.2139 -11.71488,-3.14302 -1.19833,-0.68904 -7.49395,-9.30472 -10.8577,-8.00041 -1.0281,0.39866 -21.20248,12.39994 -24.28695,10.8577 -4.26515,-2.13257 -1.87441,-8.9263 -6.85749,-12.28634 -2.26267,-1.5257 -4.58343,3.05419 -7.14322,4.0002 -4.98371,1.84181 -10.20191,3.04976 -15.42936,4.00021 -12.229503,2.22354 -3.611369,-9.10877 -3.714475,-10.8577 -0.504901,-8.56434 -14.966879,9.52474 -18.286648,21.14394 z"
       id="path6"
       sodipodi:nodetypes="csssssssssssssssssssscssssssssc" />
    <path
       style="fill:#ffffff;stroke-width:1.05833"
       d="m 107.8898,181.43265 c 3.42943,-4.21024 7.62661,-7.87552 12.12244,-10.9102 4.16249,-2.80968 11.12815,-7.8796 16.56735,-7.8796 2.10273,0 0.53382,6.64821 -0.40408,7.27347 -5.73653,3.82436 -21.1535,10.80311 -28.28571,11.51633 z"
       id="path7" />
    <path
       style="fill:#ffffff;stroke-width:1.05833"
       d="m 141.07863,170.86586 c 0.44098,-2.97506 7.70813,-2.04863 6.85749,0.92862 -0.1694,0.59289 -1.24035,0.89911 -1.71438,1.07148 -2.84122,1.03317 -3.45938,-0.31636 -5.14311,-2.0001 z"
       id="path8" />
    <path
       style="fill:#ffffff;stroke-width:1.05833"
       d="m 98.393876,224.2653 c 4.150194,0.12548 34.402574,3.2678 32.932654,7.67755 -0.73618,2.20854 -13.07668,1.95402 -15.15306,1.01021 -3.36144,-1.52793 -6.54356,-4.37062 -9.69796,-6.26327 -2.21307,-1.32784 -5.57813,-1.35156 -8.081634,-2.42449 z"
       id="path9" />
    <path
       style="fill:#ffffff;stroke-width:1.05833"
       d="m 90.514285,232.34694 c 29.418145,11.35814 7.581387,26.53485 0,0 z"
       id="path10" />
    <path
       style="fill:#ffffff;stroke-width:1.05833"
       d="m 18.183673,211.73877 c 2.851728,-3.63708 -5.488675,-4.36096 -6.263265,-2.42449 -1.621494,4.05374 4.525421,3.91407 6.263265,2.42449 z"
       id="path11" />
    <path
       style="fill:#ffffff;stroke-width:1.05833"
       d="m 186.28163,209.92041 c 1.84703,-1.86691 3.31912,-1.52976 5.85918,-1.21225 4.89659,0.61207 -2.75727,7.41606 -5.85918,1.21225 z"
       id="path12" />
  </g>
  <g
     inkscape:groupmode="layer"
     id="layer3"
     inkscape:label="Layer 3"
     transform="matrix(0.95706448,0,0,0.97748775,10.589147,-197.32025)"
     style="display:inline">
    <path
       id="path13"
       style="fill:#ffffff;stroke-width:1.05833"
       d="m 15.503446,201.86468 c -0.752187,5e-5 -1.477186,0.18509 -2.168859,0.58033 -12.41548956,7.09455 18.51925,24.03107 16.967467,30.11738 -0.679366,2.7877 -3.49048,2.26125 -5.248803,2.61292 -0.05566,0.0111 -0.110982,0.0233 -0.165364,0.0357 -8.311188,-6.87011 -19.2971412,-14.9274 -20.4431971,-6.90501 -0.1379204,0.96545 -0.8771154,6.81474 0,8.08168 0.030986,0.0448 0.062834,0.0889 0.095085,0.13229 -2.6190203,-0.83682 -4.13672332,0.47524 -3.2287435,5.9061 -8.0511816,-0.91492 -16.0100114,0.40106 -10.6050374,8.50852 4.0623349,6.09351 12.05213,8.35731 20.330025,10.34149 0.117697,0.74583 0.438189,1.5631 1.003556,2.43241 -0.07163,0.31948 -0.177469,0.64089 -0.321427,0.9648 -3.0809433,6.93211 -14.4182154,-1.60862 -17.7792764,2.42466 -7.5011166,9.00133 3.8326581,8.42676 14.8941813,6.40581 2.0664681,1.32736 5.3700161,2.43456 8.5219601,3.25975 -8.3614365,8.75884 -1.04079,9.21179 6.592362,6.75359 -3.40485,10.59761 8.089606,15.46284 13.122582,11.36029 4.246843,-3.46174 2.842882,-7.82664 6.308274,-12.2853 1.183976,-1.10427 1.398951,-1.70726 4.523148,-1.60605 3.703737,0.47137 4.660554,1.04283 5.413713,2.71245 3.14269,19.7235 12.376318,10.76842 6.838481,-1.7904 -0.07202,-0.75281 0.612022,-1.5381 2.369198,-3.19228 1.585734,-0.90043 3.254356,-0.30996 4.989904,0.12461 8.158232,9.34142 17.955976,18.76336 25.022245,15.73496 4.979675,-2.13416 2.357477,-12.46454 -1.212329,-14.54691 -6.158746,-3.59261 -13.597513,-3.0615 -20.014282,-5.31854 -0.492067,-0.66706 -0.620213,-1.68434 -0.484854,-2.24813 0.510313,-0.94382 0.895241,-1.99128 2.307482,-2.25909 15.977029,4.77676 39.004393,4.48829 29.505693,-2.2965 -7.606698,-5.43337 -19.233143,-4.16001 -27.731125,-7.1484 -0.04553,-1.04194 -0.192459,-2.02792 -0.452685,-2.92644 0.9276,-0.40639 1.757149,-0.84677 2.495455,-1.31568 28.331525,10.16567 36.320435,-20.27579 4.437455,-11.8861 -5.421008,-0.3871 -8.481254,-3.33119 -6.831624,-8.62686 0.912692,-0.2475 1.919026,-0.52243 3.029789,-0.82734 34.191615,-9.38593 8.929702,-33.0238 -10.182841,-5.90972 -1.137006,-0.72977 -2.42263,-1.29135 -3.742924,-1.5968 4.330025,-6.71227 10.504792,-13.17319 -0.621151,-9.46454 -3.453137,1.15105 -4.962303,8.71973 -6.491593,11.08666 -0.205779,0.19349 -0.404517,0.40343 -0.595313,0.63046 -0.156486,0.0835 -0.31567,0.0998 -0.479557,0.0382 l 0.271301,0.23254 c -0.215317,0.27974 -0.422943,0.57533 -0.614433,0.9033 -2.251695,-18.10484 -15.093447,-29.52936 -10.487215,-1.7725 -1.9763,-0.28082 -3.927765,0.0234 -5.513358,1.18339 -6.552218,-11.37582 -16.352215,-28.64209 -23.623365,-28.64166 z m 39.96707,28.09493 -0.515214,-0.44132 c 0.177962,0.23589 0.348929,0.37883 0.515214,0.44132 z m -46.7661377,8.87336 c 1.7040217,0.3545 3.6721107,0.40657 5.6709717,0.39636 -0.638259,0.33085 -1.260665,0.97807 -1.848983,2.00762 l 1.471228,2.10169 c -1.78366,-1.6 -3.591475,-3.29071 -5.2932167,-4.50567 z"
       sodipodi:nodetypes="cscscssccsccsscccsccccccsscccsccccccccscccccccsccccccccc" />
    <path
       style="fill:#ffffff;stroke-width:1.05833"
       d="m 100.0051,252.29858 c 3.07716,-2.11782 4.6204,-5.52631 6.28604,-8.85759 5.95344,-11.90688 5.14291,-7.9998 2.28583,0.57145 -0.52253,1.56759 4.99239,-1.17218 5.71457,-2.85728 1.48546,-3.46607 8.5489,-20.02859 14.28645,-13.14353 5.92523,7.11028 -16.28501,11.14804 -13.42926,19.71529 4.01156,12.03467 16.58251,-10.84132 20.85821,-4.0002 3.58108,5.72973 -6.86074,12.00061 3.71447,12.00061 12.70295,0 12.36092,-14.83109 30.28726,-12.00061 2.03823,0.32182 5.67124,0.8802 6.85749,2.85729 2.92803,4.88005 -23.49196,15.28033 -28.00142,18.28663 -0.2822,0.18815 -5.06587,-1.56212 -6.00031,-1.42863 -1.4236,0.20337 -3.28932,2.71099 -2.0001,4.0002 8.56159,8.56159 47.62835,-10.08593 44.85943,5.14313 -1.46736,8.07047 -32.14927,8.50995 -37.71621,7.71466 -4.08814,-0.58401 -7.92035,-7.58571 -12.28634,-5.71457 -10.80805,4.63203 7.22697,12.48801 -14.28644,11.14343 -7.95795,-0.49737 -2.17693,-12.11625 -9.71479,-14.00072 -8.0134,-2.00335 -3.47113,10.27565 -13.714981,7.71469 -5.965277,-1.49132 -11.042591,-7.49059 -16.858003,-9.42906 -6.822742,-2.27425 -14.6904,-0.55052 -21.715394,-1.42864 -4.962258,-0.62029 -4.734759,-10.62654 -1.714373,-13.14353 6.350714,-5.29226 34.758645,-7.44543 42.287871,-3.14302 z"
       id="path36" />
    <path
       style="fill:#ffffff;stroke-width:1.05833"
       d="m 143.75204,243.66122 c 0.39993,-3.38497 5.8746,-14.11202 8.8898,-8.08163 0.32905,0.6581 0.80192,1.32575 0.40408,2.12143 -1.25911,2.51821 -5.16312,4.03271 -7.47551,5.35408"
       id="path37" />
    <path
       style="fill:#ffffff;stroke-width:1.05833"
       d="m 107.8898,279.72551 c 2.38681,1.91829 7.90024,4.02339 2.82857,6.46531 -3.2879,1.58305 -3.73776,0.12168 -3.73776,-2.72756"
       id="path38" />
    <path
       style="fill:#ffffff;stroke-width:1.05833"
       d="m 139.29282,280.01428 c 3.69347,-0.3511 5.36926,4.57015 0.57146,1.57152"
       id="path39" />
    <path
       style="fill:#ffffff;stroke-width:1.05833"
       d="m 136.1498,283.58589 c 1.20489,0.18862 2.32014,1.46457 0.57146,1.71437"
       id="path40" />
    <path
       style="fill:#ffffff;stroke-width:1.05833"
       d="m 98.004999,234.44053 c 7.318601,-14.08351 18.629581,-8.0331 7.571811,-1.71437"
       id="path41" />
    <path
       style="fill:#ffffff;stroke-width:1.05833"
       d="m 186.68571,259.01632 c -0.52118,-3.77034 19.53993,-5.67133 14.3449,-1.5153 -2.75804,2.20643 -6.95038,1.1488 -10.00102,2.0204"
       id="path42" />
    <path
       style="fill:#ffffff;stroke-width:1.05833"
       d="m 188.90816,262.65306 c 7.47377,-0.89852 13.16759,5.19734 3.63674,2.02041"
       id="path43" />
    <path
       style="fill:#ffffff;stroke-width:1.05833"
       d="m 4.0408164,288.91836 c -18.1243554,1.97913 -3.69523128,14.78092 0,0 z"
       id="path44" />
  </g>
</svg>
